# xmcd
#
# Track frame offsets:
#	150
#	23547
#	40797
#	59932
#	75085
#	92380
#	116287
#	136970
#	152560
#	166055
#
# Disc length: 2451 seconds
# Revision: 0
# Processed by: cddbd v1.5.2PL0 Copyright (c) Steve Scherf et al.
# Submitted via: dBpowerAMP V12.0
#
DISCID=6509910a
DTITLE=Joyce Lawson - Today I Sing The Blues
DYEAR=1997
DGENRE=Soul
TTITLE0=Going Back to my Husband
TTITLE1=I Can do Bad by Myself
TTITLE2=Time to Move on
TTITLE3=Love of Mine
TTITLE4=Your Good Thing (is About to End)
TTITLE5=Giving my Love (to The Other Woman)
TTITLE6=Stop Doggin me Around
TTITLE7=Love Chain
TTITLE8=Today I Sing The Blues
TTITLE9=I Still Love You
EXTD=
EXTT0=
EXTT1=
EXTT2=
EXTT3=
EXTT4=
EXTT5=
EXTT6=
EXTT7=
EXTT8=
EXTT9=
PLAYORDER=
